<mxfile host="Electron" modified="2023-07-13T01:10:09.149Z" agent="Mozilla/5.0 (Macintosh; Intel Mac OS X 10_15_7) AppleWebKit/537.36 (KHTML, like Gecko) draw.io/21.6.1 Chrome/112.0.5615.204 Electron/24.6.1 Safari/537.36" etag="EqRe5w_iswNi6fyLeSu4" version="21.6.1" type="device">
  <diagram name="Page-1" id="R0ijcDK5WOpKtnAgS2-L">
    <mxGraphModel dx="2896" dy="878" grid="1" gridSize="10" guides="1" tooltips="1" connect="1" arrows="1" fold="1" page="1" pageScale="1" pageWidth="827" pageHeight="1169" math="0" shadow="0">
      <root>
        <mxCell id="0" />
        <mxCell id="1" parent="0" />
        <mxCell id="kBze4jwoGc-237wpM9LA-1" value="Core Changes - Happy Path - Main Customer - Fake data Real Schema" style="whiteSpace=wrap;html=1;fillColor=#dae8fc;strokeColor=default;opacity=40;fontSize=14;dashed=1;fontFamily=Verdana;" parent="1" vertex="1">
          <mxGeometry x="-500" y="200" width="210" height="50" as="geometry" />
        </mxCell>
        <mxCell id="kBze4jwoGc-237wpM9LA-2" value="" style="endArrow=classic;html=1;rounded=0;startArrow=none;startFill=0;endFill=1;fontSize=14;fontFamily=Verdana;" parent="1" edge="1">
          <mxGeometry width="50" height="50" relative="1" as="geometry">
            <mxPoint x="-670" y="430" as="sourcePoint" />
            <mxPoint x="-670" y="20" as="targetPoint" />
          </mxGeometry>
        </mxCell>
        <mxCell id="kBze4jwoGc-237wpM9LA-4" value="Complexity Dimension&lt;br style=&quot;font-size: 14px;&quot;&gt;eg: Customer Types&lt;br style=&quot;font-size: 14px;&quot;&gt;Client Application&lt;br style=&quot;font-size: 14px;&quot;&gt;Input type&lt;br style=&quot;font-size: 14px;&quot;&gt;Account Type etc" style="edgeLabel;html=1;align=center;verticalAlign=middle;resizable=0;points=[];labelBackgroundColor=none;fontSize=14;fontFamily=Verdana;" parent="kBze4jwoGc-237wpM9LA-2" vertex="1" connectable="0">
          <mxGeometry x="0.1111" y="-4" relative="1" as="geometry">
            <mxPoint x="-94" y="-2" as="offset" />
          </mxGeometry>
        </mxCell>
        <mxCell id="kBze4jwoGc-237wpM9LA-3" value="" style="endArrow=classic;html=1;rounded=0;endFill=1;fontSize=14;fontFamily=Verdana;" parent="1" edge="1">
          <mxGeometry width="50" height="50" relative="1" as="geometry">
            <mxPoint x="-690" y="410" as="sourcePoint" />
            <mxPoint x="-60" y="410" as="targetPoint" />
          </mxGeometry>
        </mxCell>
        <mxCell id="VICXuckAdETk0HGFT0fn-8" value="End to end component usage&lt;br style=&quot;font-size: 14px;&quot;&gt;Request cache -&amp;gt; Business Logic -&amp;gt; Database Connection - &amp;gt; Actual Database" style="edgeLabel;html=1;align=center;verticalAlign=middle;resizable=0;points=[];labelBackgroundColor=none;fontSize=14;fontFamily=Verdana;" vertex="1" connectable="0" parent="kBze4jwoGc-237wpM9LA-3">
          <mxGeometry x="0.6413" y="3" relative="1" as="geometry">
            <mxPoint x="-207" y="23" as="offset" />
          </mxGeometry>
        </mxCell>
        <mxCell id="kBze4jwoGc-237wpM9LA-6" value="Core Changes - Happy Path - Lite Users" style="whiteSpace=wrap;html=1;fillColor=#C0CCDE;strokeColor=default;opacity=40;fontSize=14;dashed=1;fontFamily=Verdana;" parent="1" vertex="1">
          <mxGeometry x="-500" y="150" width="210" height="40" as="geometry" />
        </mxCell>
        <mxCell id="VICXuckAdETk0HGFT0fn-1" value="Core Changes - Happy Path - Plus Users" style="whiteSpace=wrap;html=1;fillColor=#BECADB;strokeColor=default;opacity=40;fontSize=14;dashed=1;fontFamily=Verdana;" vertex="1" parent="1">
          <mxGeometry x="-500" y="260" width="210" height="40" as="geometry" />
        </mxCell>
        <mxCell id="VICXuckAdETk0HGFT0fn-2" value="Core Changes - Error Path - Lite Users" style="whiteSpace=wrap;html=1;fillColor=#C0CCDE;strokeColor=default;opacity=40;fontSize=14;dashed=1;fontFamily=Verdana;" vertex="1" parent="1">
          <mxGeometry x="-500" y="100" width="210" height="40" as="geometry" />
        </mxCell>
        <mxCell id="VICXuckAdETk0HGFT0fn-3" value="Core Changes - Error Path - Plus Users" style="whiteSpace=wrap;html=1;fillColor=#BECADB;strokeColor=default;opacity=40;fontSize=14;dashed=1;fontFamily=Verdana;" vertex="1" parent="1">
          <mxGeometry x="-500" y="310" width="210" height="40" as="geometry" />
        </mxCell>
        <mxCell id="VICXuckAdETk0HGFT0fn-4" value="" style="endArrow=none;dashed=1;html=1;dashPattern=1 3;strokeWidth=2;rounded=0;fontSize=14;fontFamily=Verdana;" edge="1" parent="1">
          <mxGeometry width="50" height="50" relative="1" as="geometry">
            <mxPoint x="-400" y="400" as="sourcePoint" />
            <mxPoint x="-400" y="360" as="targetPoint" />
          </mxGeometry>
        </mxCell>
        <mxCell id="VICXuckAdETk0HGFT0fn-5" value="" style="endArrow=none;dashed=1;html=1;dashPattern=1 3;strokeWidth=2;rounded=0;fontSize=14;fontFamily=Verdana;" edge="1" parent="1">
          <mxGeometry width="50" height="50" relative="1" as="geometry">
            <mxPoint x="-390" y="90" as="sourcePoint" />
            <mxPoint x="-390" y="50" as="targetPoint" />
          </mxGeometry>
        </mxCell>
        <mxCell id="VICXuckAdETk0HGFT0fn-6" value="Core Changes - Hard Coded Returns" style="whiteSpace=wrap;html=1;fillColor=#dae8fc;strokeColor=default;opacity=40;fontSize=14;dashed=1;fontFamily=Verdana;" vertex="1" parent="1">
          <mxGeometry x="-660" y="200" width="150" height="50" as="geometry" />
        </mxCell>
        <mxCell id="VICXuckAdETk0HGFT0fn-7" value="Core Changes - Real Database Querying" style="whiteSpace=wrap;html=1;fillColor=#dae8fc;strokeColor=default;opacity=40;fontSize=14;dashed=1;fontFamily=Verdana;" vertex="1" parent="1">
          <mxGeometry x="-280" y="200" width="160" height="50" as="geometry" />
        </mxCell>
      </root>
    </mxGraphModel>
  </diagram>
</mxfile>
